<svg width="28" height="32" viewBox="0 0 28 32" fill="none" xmlns="http://www.w3.org/2000/svg">
<g id="Frame" clip-path="url(#clip0_1_32)">
<path id="Vector" d="M6 9.5V10H3V9.5C3 4.25625 7.25625 0 12.5 0H15.5C20.7437 0 25 4.25625 25 9.5V10H22V9.5C22 5.9125 19.0875 3 15.5 3H12.5C8.9125 3 6 5.9125 6 9.5ZM0 14C0 12.8938 0.89375 12 2 12H26C27.1063 12 28 12.8938 28 14C28 15.1062 27.1063 16 26 16H25.6812L24.2812 29.3125C24.1187 30.8375 22.8312 32 21.3 32H6.7C5.1625 32 3.875 30.8438 3.71875 29.3125L2.31875 16H2C0.89375 16 0 15.1062 0 14Z" fill="#E0F2EE"/>
</g>
<defs>
<clipPath id="clip0_1_32">
<rect width="28" height="32" fill="white"/>
</clipPath>
</defs>
</svg>
