<svg width="32" height="32" viewBox="0 0 32 32" fill="none" xmlns="http://www.w3.org/2000/svg">
<g id="Frame">
<path id="Vector" d="M17.3333 10.6667V5.33334C17.3333 4.95556 17.4613 4.63867 17.7173 4.38267C17.9733 4.12667 18.2898 3.99912 18.6667 4H26.6667C27.0445 4 27.3613 4.128 27.6173 4.384C27.8733 4.64 28.0009 4.95645 28 5.33334V10.6667C28 11.0444 27.872 11.3613 27.616 11.6173C27.36 11.8733 27.0436 12.0009 26.6667 12H18.6667C18.2889 12 17.972 11.872 17.716 11.616C17.46 11.36 17.3324 11.0436 17.3333 10.6667ZM4 16V5.33334C4 4.95556 4.128 4.63867 4.384 4.38267C4.64 4.12667 4.95645 3.99912 5.33334 4H13.3333C13.7111 4 14.028 4.128 14.284 4.384C14.54 4.64 14.6676 4.95645 14.6667 5.33334V16C14.6667 16.3778 14.5387 16.6947 14.2827 16.9507C14.0267 17.2067 13.7102 17.3342 13.3333 17.3333H5.33334C4.95556 17.3333 4.63867 17.2053 4.38267 16.9493C4.12667 16.6933 3.99912 16.3769 4 16ZM17.3333 26.6667V16C17.3333 15.6222 17.4613 15.3053 17.7173 15.0493C17.9733 14.7933 18.2898 14.6658 18.6667 14.6667H26.6667C27.0445 14.6667 27.3613 14.7947 27.6173 15.0507C27.8733 15.3067 28.0009 15.6231 28 16V26.6667C28 27.0445 27.872 27.3613 27.616 27.6173C27.36 27.8733 27.0436 28.0009 26.6667 28H18.6667C18.2889 28 17.972 27.872 17.716 27.616C17.46 27.36 17.3324 27.0436 17.3333 26.6667ZM4 26.6667V21.3333C4 20.9556 4.128 20.6387 4.384 20.3827C4.64 20.1267 4.95645 19.9991 5.33334 20H13.3333C13.7111 20 14.028 20.128 14.284 20.384C14.54 20.64 14.6676 20.9564 14.6667 21.3333V26.6667C14.6667 27.0445 14.5387 27.3613 14.2827 27.6173C14.0267 27.8733 13.7102 28.0009 13.3333 28H5.33334C4.95556 28 4.63867 27.872 4.38267 27.616C4.12667 27.36 3.99912 27.0436 4 26.6667Z" fill="#757575"/>
</g>
</svg>
