<svg width="17" height="17" viewBox="0 0 17 17" fill="none" xmlns="http://www.w3.org/2000/svg">
<g id="Frame">
<path id="Vector" d="M11.1814 2.69104C10.0226 2.69104 8.91052 3.23045 8.18464 4.08286C7.45877 3.23045 6.34665 2.69104 5.18791 2.69104C3.13681 2.69104 1.52524 4.30262 1.52524 6.35371C1.52524 8.87097 3.78944 10.9221 7.21903 14.0387L8.18464 14.9111L9.15026 14.032C12.5799 10.9221 14.8441 8.87097 14.8441 6.35371C14.8441 4.30262 13.2325 2.69104 11.1814 2.69104ZM8.25124 13.0464L8.18464 13.113C8.18464 13.113 9.25016 14.6114 8.11805 13.0464C6.98594 11.4815 16.7087 6.22053 5.78724 7.08625C5.38768 8.68451 8.451 7.88538 9.78289 7.88538C10.8084 7.88538 7.21237 4.6822 7.56532 5.59454L8.11805 14.0387C8.46434 13.1263 10.1558 11.4815 11.1814 11.4815C12.5133 11.4815 13.636 6.35371 12.9794 6.28712C11.3811 6.62009 11.4211 10.1762 8.25124 13.0464Z" fill="white"/>
</g>
</svg>
