<svg width="32" height="32" viewBox="0 0 32 32" fill="none" xmlns="http://www.w3.org/2000/svg">
<g id="Frame">
<path id="Vector" d="M6.66665 29.3333C6.31302 29.3333 5.97389 29.1929 5.72384 28.9428C5.47379 28.6928 5.33331 28.3536 5.33331 28V3.99999C5.33331 3.64637 5.47379 3.30723 5.72384 3.05718C5.97389 2.80713 6.31302 2.66666 6.66665 2.66666H25.3333C25.6869 2.66666 26.0261 2.80713 26.2761 3.05718C26.5262 3.30723 26.6666 3.64637 26.6666 3.99999V28C26.6666 28.3536 26.5262 28.6928 26.2761 28.9428C26.0261 29.1929 25.6869 29.3333 25.3333 29.3333H6.66665ZM20 21.3333L26.6666 16L20 10.6667V14.6667H12V17.3333H20V21.3333Z" fill="#FF5E5E"/>
</g>
</svg>
